# xmcd CD database file
#
# Track frame offsets:
#	150
#	16782
#	38057
#	54632
#
# Disc length: 1010 seconds
#
# Revision: 0
# Processed by: cddbd v1.5PL3 Copyright (c) Steve Scherf et al.
# Submitted via: CDex 1.50Beta7
#
DISCID=2603f004
DTITLE=大海恵(前田愛) - Happy Tomorrow
DYEAR=2004
DGENRE=Anime
TTITLE0=Happy Tomorrow
TTITLE1=ワタシノユメ
TTITLE2=Happy Tomorrow (Original Karaoke)
TTITLE3=ワタシノユメ (Original Karaoke)
EXTD=YEAR: 2004
EXTT0=
EXTT1=
EXTT2=
EXTT3=
PLAYORDER=
